# xmcd CD database file
#
# Track frame offsets:
#	150
#	15585
#	33230
#	48435
#	65990
#	83525
#	101302
#	119457
#	136867
#	154517
#	172052
#	188050
#	206165
#	223987
#	241902
#	260662
#	278475
#	296155
#	313912
#	332050
#
# Disc length: 4666 seconds
#
# Revision: 0
# Processed by: cddbd v1.5.1PL2 Copyright (c) Steve Scherf et al.
# Submitted via: CDex 1.51
#
DISCID=2a123814
DTITLE=Various Artist - BLUE NOTE ever! 80's
DYEAR=2005
DGENRE=Jazz
TTITLE0=CANTALOUPE ISLAND/HERBIE HANCOCK
TTITLE1=ELEANOR RIGBY/STANLEY JORDAN
TTITLE2=OTB/OUT OF THE BLUE
TTITLE3=SISTER CHERYL/TONY WILLIAMS
TTITLE4=DESERT MOOONLIGHT/FREDDIE HUBBARD and WOOODY SHAW
TTITLE5=FUNJII MAMA/JIMMY SMITH
TTITLE6=TENNESSEE WALTZ/BENNIE WALLACE
TTITLE7='ROUND MIDNIGHT/DEXTER GORDON
TTITLE8=SONG FROM THE OLD COUNTRY/DON PULLEN=GEORGE ADAMS
TTITLE9=INFERNO/BIRELI LAGRENE
TTITLE10=A SAIN'T HOMECOMING SONG/FREDDIE HUBBARD
TTITLE11=SIR DUKE/STANLEY TURRENTINE
TTITLE12=BETTER DAYS/DIANNE REEVES
TTITLE13=MONA LISA/CHARNETT MOFFETT
TTITLE14=DON'T WORRY, BE HAPPY/BOBBY McFERRIN
TTITLE15=WHAT A WONDERFUL WORLD/GEORGE ADAMS
TTITLE16=ONE NOTE SAMBA/ELIANE ELIAS
TTITLE17=MEMORIES OF PARIS/MICHEL PETRUCCIANI
TTITLE18=RAIN AGAIN/TERUASA HINO
TTITLE19=WELL, YOU NEEDN'T/GONZALO RUBALCABA
EXTD=YEAR: 2005
EXTT0=
EXTT1=
EXTT2=
EXTT3=
EXTT4=
EXTT5=
EXTT6=
EXTT7=
EXTT8=
EXTT9=
EXTT10=
EXTT11=
EXTT12=
EXTT13=
EXTT14=
EXTT15=
EXTT16=
EXTT17=
EXTT18=
EXTT19=
PLAYORDER=
